<?xml version="1.0" standalone="no"?>
<!DOCTYPE svg PUBLIC "-//W3C//DTD SVG 20010904//EN"
 "http://www.w3.org/TR/2001/REC-SVG-20010904/DTD/svg10.dtd">
<svg version="1.0" xmlns="http://www.w3.org/2000/svg"
 width="256.000000pt" height="256.000000pt" viewBox="0 0 256.000000 256.000000"
 preserveAspectRatio="xMidYMid meet">

<g transform="translate(0.000000,256.000000) scale(0.100000,-0.100000)"
fill="#000000" stroke="none">
<path d="M183 1849 c-63 -24 -128 -85 -156 -147 -22 -46 -22 -55 -22 -622 l0
-575 30 -54 c16 -29 47 -68 68 -87 68 -58 103 -64 359 -64 l228 0 6 28 c13 52
56 124 100 167 196 191 500 96 580 -183 5 -17 1121 -17 1145 1 47 36 52 105
10 148 l-29 29 -165 0 -164 0 -6 202 c-5 142 -12 230 -26 293 -50 233 -151
418 -324 593 -130 132 -269 223 -410 267 l-78 25 -547 -1 c-521 0 -549 -1
-599 -20z m502 -469 l0 -195 -192 -3 -193 -2 0 164 c0 161 0 165 25 195 32 38
39 39 215 37 l145 -1 0 -195z m650 176 c77 -27 183 -98 252 -168 60 -61 133
-168 133 -195 0 -11 -68 -13 -367 -11 l-368 3 -3 185 c-1 101 0 191 3 198 8
21 281 11 350 -12z"/>
<path d="M935 451 c-81 -38 -125 -111 -125 -208 0 -73 26 -130 76 -171 69 -57
164 -68 249 -28 59 27 77 46 104 106 51 113 3 253 -103 301 -54 25 -148 25
-201 0z"/>
</g>
</svg>
